<svg xmlns="http://www.w3.org/2000/svg" xmlns:xlink="http://www.w3.org/1999/xlink" width="1366" zoomAndPan="magnify" viewBox="0 0 1024.5 576" height="768" preserveAspectRatio="xMidYMid meet" version="1.2"><defs><clipPath id="60008fa0aa"><path d="M 235.90625 28.507812 L 723.898438 28.507812 L 723.898438 516.5 L 235.90625 516.5 Z M 235.90625 28.507812 "/></clipPath><clipPath id="3501402bed"><path d="M 514.925781 299.566406 L 748.675781 299.566406 L 748.675781 527.832031 L 514.925781 527.832031 Z M 514.925781 299.566406 "/></clipPath><clipPath id="04eb6f6355"><path d="M 299.566406 175.902344 L 642.484375 175.902344 L 642.484375 369.679688 L 299.566406 369.679688 Z M 299.566406 175.902344 "/></clipPath><clipPath id="2d593dd6ae"><path d="M 329.953125 175.902344 L 414.488281 175.902344 L 414.488281 369.679688 L 329.953125 369.679688 Z M 329.953125 175.902344 "/></clipPath><clipPath id="c8039e2242"><path d="M 395.476562 178.714844 L 439.511719 178.714844 L 439.511719 362.539062 L 395.476562 362.539062 Z M 395.476562 178.714844 "/></clipPath><clipPath id="5ca4e9452b"><path d="M 423.441406 313.105469 L 470.820312 313.105469 L 470.820312 369.679688 L 423.441406 369.679688 Z M 423.441406 313.105469 "/></clipPath><clipPath id="ef29e4e1e2"><path d="M 448 175.902344 L 488 175.902344 L 488 240 L 448 240 Z M 448 175.902344 "/></clipPath><clipPath id="90419cf65b"><path d="M 396 175.902344 L 499.695312 175.902344 L 499.695312 287.128906 L 396 287.128906 Z M 396 175.902344 "/></clipPath></defs><g id="203f31ccc0"><g clip-rule="nonzero" clip-path="url(#60008fa0aa)"><path style=" stroke:none;fill-rule:nonzero;fill:#3d2713;fill-opacity:1;" d="M 479.902344 28.507812 C 344.890625 28.507812 235.90625 137.492188 235.90625 272.503906 C 235.90625 407.515625 344.890625 516.5 479.902344 516.5 C 614.914062 516.5 723.898438 407.515625 723.898438 272.503906 C 723.898438 137.492188 614.914062 28.507812 479.902344 28.507812 Z M 479.902344 494.8125 C 357.363281 494.8125 257.59375 395.042969 257.59375 272.503906 C 257.59375 149.960938 357.363281 50.195312 479.902344 50.195312 C 602.445312 50.195312 702.210938 149.960938 702.210938 272.503906 C 702.210938 395.042969 602.445312 494.8125 479.902344 494.8125 Z M 479.902344 494.8125 "/></g><path style="fill:none;stroke-width:23;stroke-linecap:butt;stroke-linejoin:miter;stroke:#3d2713;stroke-opacity:1;stroke-miterlimit:4;" d="M -0.00144584 11.499899 L 52.011717 11.499899 " transform="matrix(1.014542,0,0,1.014542,650.036623,276.231309)"/><path style="fill:none;stroke-width:23;stroke-linecap:butt;stroke-linejoin:miter;stroke:#ffffff;stroke-opacity:1;stroke-miterlimit:4;" d="M -0.00108293 11.500801 L 534.417023 11.500801 " transform="matrix(0,1.013771,-1.013771,0,491.749017,16.911254)"/><g clip-rule="nonzero" clip-path="url(#3501402bed)"><path style=" stroke:none;fill-rule:nonzero;fill:#ffffff;fill-opacity:1;" d="M 514.925781 299.566406 L 748.542969 299.566406 L 748.542969 527.835938 L 514.925781 527.835938 Z M 514.925781 299.566406 "/></g><path style="fill:none;stroke-width:23;stroke-linecap:butt;stroke-linejoin:miter;stroke:#3d2713;stroke-opacity:1;stroke-miterlimit:4;" d="M -0.00162609 11.498669 L 94.888033 11.49867 " transform="matrix(0.00000000177071,1.014542,-1.014542,0.00000000177071,515.017444,417.364931)"/><path style="fill:none;stroke-width:23;stroke-linecap:butt;stroke-linejoin:miter;stroke:#3d2713;stroke-opacity:1;stroke-miterlimit:4;" d="M 0.00150709 11.499997 L 74.738905 11.499997 " transform="matrix(0,1.014542,-1.014542,0,515.022697,31.021908)"/><g clip-rule="nonzero" clip-path="url(#04eb6f6355)"><path style=" stroke:none;fill-rule:nonzero;fill:#ffffff;fill-opacity:1;" d="M 695.644531 156.589844 L 219.039062 156.589844 L 219.039062 424.171875 L 695.644531 424.171875 Z M 695.644531 156.589844 "/><path style=" stroke:none;fill-rule:nonzero;fill:#ffffff;fill-opacity:1;" d="M 695.644531 156.589844 L 219.039062 156.589844 L 219.039062 424.171875 L 695.644531 424.171875 Z M 695.644531 156.589844 "/></g><g clip-rule="nonzero" clip-path="url(#2d593dd6ae)"><path style=" stroke:none;fill-rule:nonzero;fill:#ffffff;fill-opacity:1;" d="M 414.488281 165.625 L 329.953125 165.625 L 329.953125 415.910156 L 414.488281 415.910156 Z M 414.488281 165.625 "/></g><path style=" stroke:none;fill-rule:nonzero;fill:#3d2713;fill-opacity:1;" d="M 517.230469 318.914062 L 578.246094 180.453125 L 630.8125 180.453125 L 630.8125 189.355469 C 625.808594 189.511719 621.777344 190.136719 618.726562 191.230469 C 615.675781 192.320312 613.328125 194.160156 611.683594 196.738281 C 610.046875 199.3125 608.953125 202.863281 608.40625 207.394531 C 607.855469 211.921875 607.582031 217.699219 607.582031 224.730469 L 607.582031 316.566406 C 607.582031 324.375 607.894531 330.546875 608.519531 335.078125 C 609.144531 339.609375 610.359375 343.125 612.15625 345.621094 C 613.957031 348.117188 616.539062 349.761719 619.902344 350.542969 C 623.265625 351.324219 627.6875 351.792969 633.164062 351.945312 L 633.164062 360.847656 L 557.121094 360.847656 L 557.121094 351.945312 C 562.601562 351.792969 567.019531 351.285156 570.382812 350.425781 C 573.746094 349.566406 576.367188 347.964844 578.246094 345.621094 C 580.121094 343.277344 581.371094 339.957031 581.996094 335.664062 C 582.621094 331.367188 582.9375 325.550781 582.9375 318.207031 L 582.9375 209.503906 L 580.59375 209.503906 L 512.0625 363.191406 L 506.902344 363.191406 L 439.542969 209.503906 L 438.609375 209.503906 L 438.609375 316.566406 C 438.609375 324.375 438.921875 330.546875 439.542969 335.078125 C 440.171875 339.609375 441.382812 343.125 443.183594 345.621094 C 444.980469 348.117188 447.5625 349.761719 450.925781 350.542969 C 454.292969 351.324219 458.710938 351.792969 464.183594 351.945312 L 464.183594 360.847656 L 398.710938 360.847656 L 398.710938 351.945312 C 404.1875 351.792969 408.605469 351.285156 411.96875 350.425781 C 415.332031 349.566406 417.953125 347.964844 419.832031 345.621094 C 421.707031 343.277344 422.960938 339.957031 423.582031 335.664062 C 424.210938 331.367188 424.523438 325.550781 424.523438 318.207031 L 424.523438 223.089844 C 424.523438 216.53125 424.25 211.105469 423.703125 206.8125 C 423.15625 202.515625 422.058594 199.117188 420.417969 196.617188 C 418.773438 194.117188 416.386719 192.363281 413.261719 191.347656 C 410.132812 190.332031 406.0625 189.667969 401.054688 189.355469 L 401.054688 180.453125 L 457.148438 180.453125 L 516.289062 318.914062 Z M 517.230469 318.914062 "/><g clip-rule="nonzero" clip-path="url(#c8039e2242)"><path style=" stroke:none;fill-rule:nonzero;fill:#ffffff;fill-opacity:1;" d="M 439.511719 178.714844 L 395.476562 178.714844 L 395.476562 362.496094 L 439.511719 362.496094 Z M 439.511719 178.714844 "/></g><g clip-rule="nonzero" clip-path="url(#5ca4e9452b)"><path style=" stroke:none;fill-rule:nonzero;fill:#ffffff;fill-opacity:1;" d="M 470.820312 313.105469 L 423.441406 313.105469 L 423.441406 369.660156 L 470.820312 369.660156 Z M 470.820312 313.105469 "/></g><path style=" stroke:none;fill-rule:nonzero;fill:#3d2713;fill-opacity:1;" d="M 410.339844 261.652344 C 401.871094 261.652344 394.773438 261.144531 389.046875 260.128906 C 383.316406 259.105469 378.765625 257.5 375.394531 255.304688 C 372.023438 253.113281 369.589844 250.292969 368.101562 246.84375 C 366.609375 243.398438 365.863281 239.324219 365.863281 234.621094 L 357.628906 234.621094 L 357.628906 298.777344 L 365.863281 298.777344 C 365.863281 294.078125 366.527344 290.003906 367.863281 286.5625 C 369.195312 283.117188 371.550781 280.257812 374.921875 277.984375 C 378.296875 275.710938 382.847656 273.988281 388.574219 272.8125 C 394.300781 271.636719 401.554688 271.050781 410.339844 271.050781 L 410.339844 324.15625 C 410.339844 329.328125 409.710938 333.597656 408.457031 336.96875 C 407.203125 340.335938 405.042969 343.074219 401.984375 345.1875 C 398.925781 347.304688 394.886719 348.792969 389.867188 349.65625 C 384.847656 350.519531 378.648438 350.949219 371.273438 350.949219 C 362.964844 350.949219 355.90625 350.359375 350.101562 349.183594 C 344.296875 348.007812 339.429688 346.007812 335.507812 343.191406 C 331.585938 340.371094 328.449219 336.648438 326.097656 332.03125 C 323.742188 327.40625 321.78125 321.648438 320.214844 314.753906 L 311.269531 314.753906 L 314.804688 361.050781 L 460.933594 361.050781 L 460.933594 352.117188 C 455.441406 351.960938 451.011719 351.492188 447.640625 350.707031 C 444.265625 349.925781 441.636719 348.59375 439.757812 346.714844 C 437.871094 344.835938 436.613281 342.171875 435.988281 338.726562 C 435.363281 335.28125 435.050781 330.816406 435.050781 325.335938 L 435.050781 215.828125 C 435.050781 210.34375 435.324219 205.917969 435.875 202.554688 C 436.421875 199.183594 437.519531 196.523438 439.167969 194.566406 C 440.816406 192.605469 443.210938 191.273438 446.34375 190.570312 C 449.484375 189.863281 453.558594 189.355469 458.578125 189.039062 L 458.578125 180.105469 L 322.5625 180.105469 L 320.445312 221.464844 L 328.6875 221.464844 C 329.628906 215.199219 331.15625 210.070312 333.273438 206.074219 C 335.394531 202.082031 338.296875 198.910156 341.980469 196.5625 C 345.664062 194.207031 350.332031 192.5625 355.980469 191.625 C 361.628906 190.683594 368.449219 190.214844 376.449219 190.214844 L 406.339844 190.214844 C 409.007812 190.214844 410.339844 191.546875 410.339844 194.207031 Z M 410.339844 261.652344 "/><g clip-rule="nonzero" clip-path="url(#ef29e4e1e2)"><path style="fill:none;stroke-width:4;stroke-linecap:butt;stroke-linejoin:miter;stroke:#ffffff;stroke-opacity:1;stroke-miterlimit:4;" d="M -0.00065091 2.001313 L 171.994472 1.99845 " transform="matrix(-0.136728,-0.320546,-0.320997,0.136536,480.529045,231.761696)"/></g><g clip-rule="nonzero" clip-path="url(#90419cf65b)"><path style="fill:none;stroke-width:20;stroke-linecap:butt;stroke-linejoin:miter;stroke:#3d2713;stroke-opacity:1;stroke-miterlimit:4;" d="M -0.0027064 10.003647 L 173.134254 10.000333 " transform="matrix(-0.140565,-0.318612,-0.31906,0.140368,463.31248,246.266824)"/></g></g></svg>